<svg width="140" height="128" viewBox="0 0 140 128" fill="none" xmlns="http://www.w3.org/2000/svg">

    <path
        d="M0 24.1333V31.4667L38.1333 77.7333C59.2 103.2 77.2 124.667 78.2667 125.467C79.3333 126.4 84.6667 126.933 91.7333 126.8L103.333 126.667L103.733 119.867L104.133 113.067L84.4 88.4C73.6 74.8 56 53.2 45.3333 40.2667L26 16.8L13.0667 16.6667H0V24.1333Z"
        fill="black" />
    <path
        d="M73.3333 26.1333V35.6L87.4667 52.8C95.3333 62.2667 102.267 70.4 102.8 70.8C103.467 71.2 104 59.2 104 44.1333V16.6667H88.6667H73.3333V26.1333Z"
        fill="black" />


    <path
        d="M0.266671 98L0.666671 126.667H15.3333H30L30.4 117.6L30.8 108.667L16.5333 90.2667C8.66667 80.2667 1.73334 71.4667 1.06667 70.6667C0.400004 70 0.133337 82.2667 0.266671 98Z"
        fill="black" />
</svg>
    