<?xml version="1.0" standalone="no"?>
<!DOCTYPE svg PUBLIC "-//W3C//DTD SVG 20010904//EN"
 "http://www.w3.org/TR/2001/REC-SVG-20010904/DTD/svg10.dtd">
<svg version="1.0" xmlns="http://www.w3.org/2000/svg"
 width="480.000000pt" height="179.000000pt" viewBox="0 0 480.000000 179.000000"
 preserveAspectRatio="xMidYMid meet">

<g transform="translate(0.000000,179.000000) scale(0.100000,-0.100000)"
fill="#000000" stroke="none">
<path d="M3225 1358 c-36 -28 -56 -78 -49 -117 4 -18 22 -45 42 -62 33 -29 39
-31 98 -27 49 3 69 9 88 27 58 55 54 144 -8 182 -45 27 -134 26 -171 -3z"/>
<path d="M480 1204 l0 -55 286 -347 c158 -191 293 -352 301 -358 8 -7 48 -11
101 -10 l87 1 3 51 3 51 -148 185 c-81 102 -213 264 -293 361 l-145 176 -97 1
-98 0 0 -56z"/>
<path d="M1030 1189 l0 -71 106 -129 c59 -71 111 -132 115 -135 5 -3 9 87 9
200 l0 206 -115 0 -115 0 0 -71z"/>
<path d="M1747 1075 c-109 -23 -189 -85 -235 -183 -35 -75 -37 -192 -5 -263
59 -130 183 -201 354 -201 95 0 177 25 227 67 l36 32 -21 29 c-12 16 -37 44
-55 62 l-35 33 -44 -26 c-52 -29 -142 -34 -189 -10 -28 15 -70 60 -70 76 0 5
103 9 229 9 l229 0 5 30 c8 39 -10 135 -34 182 -51 100 -142 157 -265 167 -41
4 -98 2 -127 -4z m137 -159 c34 -14 76 -59 76 -82 0 -11 -26 -14 -125 -14
-143 0 -146 2 -89 78 4 6 78 31 92 32 7 0 27 -6 46 -14z"/>
<path d="M3918 1079 c-112 -17 -219 -95 -260 -187 -32 -70 -31 -199 1 -269 28
-63 103 -136 168 -164 146 -63 334 -30 437 76 110 113 115 310 12 431 -43 51
-139 102 -203 109 -97 11 -109 11 -155 4z m147 -193 c36 -24 56 -69 56 -130 2
-92 -47 -149 -126 -149 -85 0 -135 55 -135 150 0 62 26 111 70 135 40 22 96
19 135 -6z"/>
<path d="M2307 1074 c-3 -3 46 -75 109 -160 63 -85 114 -156 114 -159 0 -3
-52 -73 -115 -156 -63 -83 -112 -155 -109 -161 6 -9 193 -9 221 0 7 2 38 39
69 83 32 43 59 79 60 79 2 0 27 -35 55 -77 29 -43 57 -81 63 -85 15 -10 234
-10 240 0 3 5 -48 80 -113 167 l-119 159 110 144 c60 79 112 150 115 158 4 11
-15 14 -105 14 -125 0 -116 5 -188 -96 -25 -35 -50 -62 -55 -58 -5 3 -27 31
-49 64 -63 93 -57 90 -184 90 -62 0 -115 -3 -119 -6z"/>
<path d="M3205 1068 c-3 -7 -4 -153 -3 -323 l3 -310 105 0 105 0 0 320 0 320
-103 3 c-77 2 -104 -1 -107 -10z"/>
<path d="M482 650 l3 -215 110 0 110 0 3 68 3 67 -107 138 c-59 75 -111 141
-116 147 -5 5 -7 -87 -6 -205z"/>
</g>
</svg>
